<?xml version="1.0" standalone="no"?>
<!DOCTYPE svg PUBLIC "-//W3C//DTD SVG 20010904//EN"
 "http://www.w3.org/TR/2001/REC-SVG-20010904/DTD/svg10.dtd">
<svg version="1.0" xmlns="http://www.w3.org/2000/svg"
 width="1080.000000pt" height="2340.000000pt" viewBox="0 0 1080.000000 2340.000000"
 preserveAspectRatio="xMidYMid meet">
<metadata>
Created by potrace 1.16, written by Peter Selinger 2001-2019
</metadata>
<g transform="translate(0.000000,2340.000000) scale(0.100000,-0.100000)"
fill="#000000" stroke="none">
<path d="M0 20552 c0 -1803 4 -2859 10 -2881 6 -22 6 -40 -1 -52 -8 -16 -6
-19 11 -19 14 0 21 6 19 18 -6 66 13 99 26 42 9 -39 25 -29 25 15 0 21 -6 37
-16 43 -11 6 -14 14 -8 23 5 8 7 23 5 33 -2 15 2 18 18 13 15 -4 23 2 33 24 7
16 20 29 28 30 8 1 26 2 40 2 14 1 25 8 26 17 0 9 -1 10 -3 3 -3 -7 -9 -13
-14 -13 -16 0 -22 29 -9 45 10 12 9 15 -5 15 -9 0 -19 9 -22 19 -3 11 -11 22
-19 25 -12 4 -12 10 -4 26 6 11 16 20 22 20 9 0 9 -3 1 -11 -17 -17 -4 -39 24
-39 25 0 25 0 8 26 -13 20 -14 28 -5 34 6 4 10 16 8 26 -2 13 4 20 20 22 17 3
21 8 17 23 -5 14 0 22 22 31 21 8 24 12 11 15 -9 2 -26 0 -36 -6 -16 -8 -21
-7 -26 6 -9 23 0 28 57 29 29 1 2411 2 5295 3 l5242 1 0 2620 0 2620 -5400 0
-5400 0 0 -2848z"/>
<path d="M10430 15785 c-7 -8 -10 -22 -6 -30 6 -17 26 -21 26 -5 0 6 5 10 10
10 18 0 10 -21 -19 -50 -16 -16 -26 -32 -23 -35 11 -11 31 -5 34 11 3 14 7 13
30 -5 16 -13 41 -21 65 -21 36 -1 37 -2 19 -15 -11 -8 -29 -15 -40 -15 -10 0
-16 -3 -13 -7 4 -3 2 -12 -4 -19 -13 -16 -4 -34 17 -34 10 0 14 8 12 23 -3 20
1 22 42 22 39 0 45 -3 50 -25 l6 -25 12 23 c14 25 32 29 32 7 0 -8 5 -15 10
-15 16 0 12 30 -5 36 -21 8 -19 19 10 50 23 25 25 44 4 44 -5 0 -9 -9 -9 -20
0 -11 -7 -20 -15 -20 -18 0 -20 33 -3 59 6 10 8 26 4 36 -6 17 -8 17 -23 -5
l-16 -23 -13 24 c-7 13 -10 27 -8 31 3 5 -2 8 -10 8 -17 0 -22 -16 -7 -22 13
-4 -22 -108 -36 -108 -8 0 -12 11 -11 25 1 14 8 25 14 25 8 0 12 13 11 35 -1
19 -5 35 -9 35 -5 0 -11 0 -15 0 -4 0 -8 -10 -8 -23 0 -17 -5 -21 -22 -19 -16
2 -23 -2 -23 -12 0 -9 5 -16 10 -16 6 0 10 -12 10 -26 0 -42 -25 -22 -28 22
-5 71 -34 103 -62 69z"/>
<path d="M5200 15274 c-47 -7 -116 -18 -155 -24 -148 -24 -406 -100 -570 -168
-222 -92 -375 -182 -535 -315 -221 -182 -330 -304 -493 -549 -69 -104 -248
-441 -306 -578 -12 -30 -30 -70 -38 -88 -8 -18 -26 -72 -39 -118 -14 -47 -36
-109 -49 -137 -13 -29 -36 -95 -50 -147 -15 -52 -33 -110 -41 -130 -8 -19 -30
-93 -49 -165 -18 -71 -41 -157 -50 -190 -10 -33 -28 -105 -41 -160 -13 -55
-29 -114 -34 -131 -5 -17 -17 -78 -25 -137 -8 -58 -19 -125 -24 -149 -28 -127
-60 -334 -71 -463 -16 -172 -28 -269 -38 -295 -5 -14 -7 -31 -5 -37 3 -7 -2
-13 -11 -13 -8 0 -22 -10 -30 -22 -13 -18 -17 -19 -31 -8 -10 9 -36 13 -66 11
-41 -2 -53 1 -68 20 -16 20 -70 41 -144 56 -15 3 -32 14 -38 25 -9 16 -13 17
-26 7 -13 -11 -18 -10 -30 6 -11 14 -17 16 -20 8 -6 -16 -45 -17 -60 -2 -14
14 -45 18 -65 8 -10 -6 -19 -5 -23 1 -4 6 -11 8 -16 5 -5 -4 -12 1 -15 9 -9
24 -31 19 -38 -9 -7 -29 -26 -25 -26 5 0 13 -5 17 -15 14 -10 -4 -13 -14 -9
-30 4 -16 2 -24 -7 -26 -8 0 -18 -2 -24 -3 -5 -2 -16 -3 -22 -4 -7 0 -13 -6
-13 -12 0 -5 10 -9 22 -7 11 2 23 -2 25 -9 2 -6 -6 -13 -18 -15 -24 -3 -35
-18 -44 -62 -5 -22 -10 -27 -25 -23 -16 4 -18 2 -11 -10 12 -21 2 -53 -16 -53
-11 0 -13 -7 -9 -25 4 -15 2 -25 -4 -25 -6 0 -9 -4 -5 -9 3 -5 -4 -16 -16 -25
-12 -8 -18 -19 -15 -25 4 -5 -1 -14 -10 -19 -10 -6 -15 -16 -11 -26 4 -9 2
-16 -3 -16 -6 0 -10 -6 -10 -14 0 -7 -7 -19 -15 -26 -8 -7 -15 -23 -15 -36 0
-17 -4 -22 -15 -18 -9 4 -15 0 -16 -7 -1 -8 -2 -18 -4 -24 -1 -5 -3 -16 -3
-24 -2 -10 -5 -11 -16 -2 -12 10 -15 7 -18 -16 -2 -20 -8 -27 -20 -25 -9 1
-28 -9 -43 -22 -31 -29 -24 -28 -189 -30 -84 -1 -133 2 -140 9 -6 7 -17 10
-25 7 -8 -3 -20 3 -27 13 -8 11 -26 18 -44 18 -24 0 -29 4 -25 18 5 14 1 16
-16 12 -14 -4 -25 0 -31 11 -5 9 -18 16 -28 16 -11 0 -20 4 -20 9 0 6 -15 11
-32 13 -18 2 -32 8 -31 15 4 19 -30 8 -37 -12 -6 -16 -8 -15 -14 10 -5 18 -3
31 3 33 6 2 11 10 11 18 0 10 -7 8 -24 -7 -14 -12 -22 -28 -19 -35 7 -18 -2
-18 -33 2 -20 14 -23 14 -19 2 9 -22 -12 -68 -31 -68 -11 0 -15 -6 -11 -20 4
-14 0 -20 -11 -21 -10 0 -5 -5 11 -11 31 -11 36 -28 8 -28 -10 0 -21 -7 -25
-15 -3 -8 0 -15 6 -15 7 0 7 -4 0 -12 -6 -7 -11 -17 -12 -23 -2 -5 -5 -16 -7
-23 -3 -7 2 -21 11 -31 12 -13 13 -20 4 -29 -8 -8 -15 -7 -24 6 -12 15 -13 13
-14 -15 0 -17 -4 -35 -10 -38 -6 -4 -5 -13 2 -25 9 -14 9 -22 0 -32 -6 -8 -14
-39 -18 -70 -5 -45 -4 -56 10 -61 23 -9 20 -27 -4 -27 -26 0 -26 -20 1 -27 12
-4 18 -11 15 -20 -3 -8 -6 -19 -6 -24 0 -5 -9 -9 -20 -9 -24 0 -26 -18 -3 -27
15 -6 15 -7 -3 -14 -17 -7 -17 -8 -1 -8 12 -1 17 -9 17 -27 0 -21 -4 -25 -20
-21 -18 5 -20 0 -19 -36 0 -23 4 -60 9 -82 7 -35 9 -37 15 -17 l8 23 12 -23
c6 -13 8 -28 4 -34 -12 -15 1 -53 16 -48 21 9 27 -14 7 -27 -16 -10 -17 -16
-8 -35 6 -13 14 -24 19 -24 4 0 5 -11 1 -25 -5 -20 -1 -28 25 -42 21 -12 30
-24 27 -35 -2 -10 0 -18 5 -18 5 0 9 -10 9 -22 0 -18 2 -20 10 -8 5 9 5 19 -2
27 -6 7 -7 13 -3 13 13 0 34 -34 35 -55 1 -11 7 -33 15 -50 14 -30 14 -30 8
15 -6 41 -5 44 10 31 10 -7 17 -18 17 -23 0 -6 7 -25 16 -44 13 -27 22 -34 45
-34 15 0 31 -5 34 -10 4 -6 11 -8 16 -5 14 9 163 14 174 5 16 -12 55 -19 55
-10 0 5 -6 10 -12 13 -7 2 -10 8 -5 12 4 5 19 2 33 -5 20 -11 29 -12 44 -2 30
18 40 15 40 -14 0 -23 3 -25 33 -21 28 4 33 1 33 -16 -1 -11 5 -22 12 -24 6
-3 12 3 12 13 0 17 1 17 13 -1 8 -10 19 -15 24 -12 6 4 16 0 23 -8 7 -8 19
-15 27 -15 8 0 11 -5 7 -12 -5 -10 -4 -10 5 -2 18 16 91 -13 91 -36 0 -25 25
-56 34 -41 4 6 2 18 -4 26 -10 12 -9 15 10 15 16 0 20 -4 16 -15 -7 -20 49
-76 69 -69 22 9 38 -5 24 -22 -12 -15 -9 -17 42 -28 21 -5 28 -2 32 14 3 13
10 18 21 14 21 -8 20 -30 -2 -43 -15 -9 -15 -10 -1 -11 9 0 22 -7 29 -15 7 -8
25 -15 40 -15 19 0 29 -6 33 -20 3 -11 12 -20 19 -20 15 0 14 -46 -2 -85 -11
-27 -32 -105 -35 -130 -4 -30 -36 -119 -46 -129 -5 -6 -9 -18 -9 -28 0 -10 -4
-18 -9 -18 -4 0 -14 -20 -21 -46 -10 -34 -10 -48 -1 -57 14 -14 14 -69 -1
-158 -11 -71 -11 -71 -60 -97 -27 -15 -113 -65 -191 -111 -219 -130 -366 -206
-647 -338 -63 -29 -287 -138 -497 -241 l-383 -187 0 -3792 0 -3793 5400 0
5400 0 0 4820 0 4820 -27 6 c-16 4 -34 11 -41 17 -10 8 -14 5 -18 -10 -4 -14
-14 -20 -37 -21 -31 -1 -31 0 -12 15 19 15 19 15 -10 8 -16 -4 -40 -7 -52 -7
-12 1 -25 -3 -28 -8 -11 -17 -62 -12 -70 7 -6 16 -8 16 -23 -4 -21 -26 -89
-36 -97 -14 -4 10 -9 11 -16 4 -5 -5 -32 -8 -59 -5 -31 3 -55 0 -64 -8 -8 -6
-24 -9 -35 -5 -11 3 -33 0 -48 -8 -21 -11 -32 -12 -45 -3 -14 8 -23 8 -38 -2
-15 -9 -26 -10 -40 -2 -16 8 -24 7 -36 -5 -19 -18 -31 -19 -38 -2 -3 9 -8 7
-15 -5 -8 -11 -25 -16 -54 -16 -23 0 -89 -6 -147 -12 -58 -7 -123 -12 -145
-13 -22 0 -46 -5 -53 -10 -10 -8 -16 -7 -22 2 -9 15 -60 7 -60 -9 0 -6 -34
-10 -80 -10 -47 0 -80 -4 -80 -10 0 -19 -18 -10 -24 13 -6 22 -6 22 -24 2 -12
-14 -31 -21 -62 -22 -88 -4 -125 -2 -128 8 -6 15 -29 11 -36 -6 -4 -12 -10
-13 -25 -6 -15 8 -20 7 -25 -5 -6 -15 -8 -15 -31 0 -14 9 -25 12 -25 6 0 -5
-20 -10 -44 -10 -29 0 -43 -4 -42 -12 0 -7 -3 -13 -9 -13 -5 0 -9 8 -8 18 3
18 -12 23 -22 7 -3 -5 -17 -10 -30 -10 -12 0 -26 -7 -29 -16 -4 -9 -12 -14
-21 -10 -8 3 -22 9 -30 12 -8 3 -15 1 -15 -6 0 -6 -7 -18 -16 -27 -11 -12 -18
-13 -27 -4 -17 17 -43 15 -28 -2 14 -18 2 -30 -16 -15 -11 9 -18 8 -31 -5 -10
-11 -12 -17 -4 -17 7 0 12 -5 12 -12 0 -9 -3 -9 -12 0 -7 7 -20 12 -30 12 -15
0 -29 22 -58 95 -4 11 -16 47 -25 80 -9 33 -23 78 -30 100 -44 123 -70 412
-69 744 1 151 3 175 17 183 9 5 17 14 17 19 0 17 43 48 66 49 12 0 24 7 28 15
3 8 17 15 31 15 15 0 24 4 21 9 -3 5 15 12 40 16 33 5 48 12 55 28 6 12 29 31
52 42 23 11 46 25 50 32 4 7 13 13 20 13 18 0 36 35 30 58 -3 14 1 21 13 24
16 3 19 14 20 65 1 45 -3 67 -15 80 -25 28 -65 85 -80 116 -11 19 -20 26 -33
21 -13 -4 -21 2 -28 20 -5 14 -14 26 -20 26 -5 0 -10 7 -10 15 0 9 -9 15 -24
15 -13 0 -29 7 -36 15 -7 8 -27 17 -46 21 -18 3 -32 11 -31 18 1 6 -5 11 -13
11 -8 1 -24 6 -34 12 -15 8 -25 8 -42 -4 -20 -13 -22 -12 -20 4 2 24 -35 29
-51 7 -12 -17 -13 -16 -13 4 0 15 -6 22 -20 22 -12 0 -20 7 -20 18 0 9 -7 26
-15 36 -8 11 -15 28 -15 37 0 10 -7 25 -16 33 -8 9 -12 16 -8 16 3 0 1 7 -6
14 -6 8 -13 30 -15 48 -6 52 -24 127 -34 146 -20 38 -43 161 -46 252 -2 74
-14 139 -54 295 -42 164 -51 217 -53 296 -1 52 2 101 7 109 5 8 2 17 -8 25
-17 12 -24 66 -9 64 4 -1 13 -1 21 0 19 1 4 16 -17 16 -10 0 -19 13 -24 37
-12 61 -58 412 -58 449 0 62 -93 312 -163 439 -11 19 -31 55 -45 80 -14 25
-47 74 -73 110 -27 36 -81 112 -120 170 -39 58 -77 112 -84 120 -7 8 -25 38
-40 65 -35 64 -95 135 -221 260 -167 166 -235 228 -319 293 -44 35 -111 90
-150 124 -87 76 -235 173 -351 231 -92 46 -201 83 -211 73 -3 -3 -15 0 -26 6
-38 20 -228 22 -347 3 -86 -14 -116 -16 -136 -7 -14 7 -32 12 -41 12 -9 0 -24
7 -33 15 -10 9 -48 17 -100 20 -61 5 -81 4 -70 -4 12 -9 11 -11 -8 -11 -13 0
-20 4 -17 10 8 13 -58 11 -165 -6z m504 -446 c5 -24 9 -29 18 -20 22 22 30 12
24 -30 -3 -24 -3 -36 1 -28 10 23 37 40 47 29 6 -5 3 -14 -9 -22 -20 -15 -12
-42 11 -33 8 3 14 1 14 -4 0 -6 -15 -10 -32 -11 l-33 -1 34 -8 c22 -5 41 -4
53 3 25 16 54 -3 50 -32 -3 -22 13 -30 20 -9 5 14 78 12 92 -2 6 -6 19 -10 29
-10 16 0 17 3 7 15 -19 23 16 32 40 10 10 -9 30 -18 44 -19 15 0 26 -7 26 -15
0 -9 8 -11 26 -7 21 6 25 4 21 -8 -8 -19 11 -32 25 -18 6 6 16 8 23 6 6 -3 18
2 25 11 7 8 19 15 27 15 13 0 13 -2 2 -16 -13 -15 -11 -16 16 -11 17 3 41 8
55 12 21 7 23 6 12 -6 -7 -8 -17 -14 -22 -14 -6 0 -11 -4 -12 -9 -3 -8 35 -9
170 -1 28 1 32 -2 30 -19 -2 -15 5 -22 32 -29 19 -4 47 -8 62 -8 15 1 29 -3
33 -9 3 -5 -1 -10 -9 -10 -9 0 -16 -4 -16 -10 0 -5 11 -10 25 -10 14 0 25 -4
25 -10 0 -5 6 -10 13 -10 8 0 22 -9 32 -20 10 -11 23 -20 29 -20 15 0 146 -91
146 -101 0 -5 6 -6 14 -3 18 7 63 -16 48 -25 -12 -7 35 -64 61 -74 9 -3 17
-15 17 -26 0 -10 11 -26 25 -35 14 -9 25 -23 25 -31 0 -8 6 -15 14 -15 8 0 18
-9 21 -20 3 -11 11 -20 16 -20 5 0 9 -9 9 -20 0 -22 15 -27 24 -7 3 6 3 1 0
-12 -3 -13 -2 -26 4 -30 9 -6 36 -49 110 -181 14 -25 29 -47 32 -50 4 -3 23
-33 43 -67 32 -55 34 -63 18 -63 -17 0 -18 -3 -4 -42 7 -24 17 -50 20 -58 3
-8 7 -26 8 -40 1 -14 12 -56 25 -95 12 -38 22 -85 21 -102 -1 -18 5 -52 13
-75 8 -24 14 -50 14 -58 1 -8 7 -42 15 -75 43 -178 57 -243 57 -275 l0 -36
-127 -12 c-71 -7 -143 -12 -162 -12 -80 0 -11 -10 209 -30 129 -12 241 -27
248 -33 20 -16 -1 -29 -29 -19 -13 5 -62 13 -109 17 -47 4 -94 9 -105 11 -60
10 -322 24 -473 24 -132 0 -171 3 -170 12 3 14 -112 16 -214 3 -44 -6 -58 -5
-58 5 0 7 -8 10 -20 7 -11 -3 -20 -2 -20 3 0 4 9 10 20 13 22 6 28 27 8 27
-24 0 -98 -45 -94 -57 3 -6 -3 -17 -11 -25 -14 -11 -16 -11 -10 4 3 10 2 20
-3 23 -6 4 -10 2 -10 -3 0 -11 -30 -25 -37 -18 -8 8 29 56 44 56 8 0 12 4 9 9
-8 12 -54 -11 -81 -38 -65 -67 -81 -81 -91 -81 -6 0 -17 -7 -24 -15 -7 -8 -19
-15 -26 -15 -18 0 -117 -60 -127 -77 -4 -7 -12 -13 -17 -13 -14 0 -90 -80 -90
-94 0 -8 -15 -16 -37 -20 -21 -3 -56 -8 -78 -11 -25 -4 -35 -3 -27 3 14 9
-103 22 -205 22 -40 0 -53 4 -53 15 0 8 -5 15 -11 15 -6 0 -8 -7 -5 -16 7 -18
1 -15 -69 36 -55 40 -156 90 -182 90 -9 0 -14 3 -11 6 3 3 33 0 66 -7 42 -9
71 -22 95 -43 41 -37 72 -56 89 -56 9 1 9 4 -2 13 -8 7 -15 17 -15 22 0 6 -8
21 -17 34 -13 19 -20 22 -31 13 -17 -15 -27 -6 -27 25 0 28 -8 29 -27 6 -13
-17 -14 -16 -9 5 4 20 1 23 -15 19 -11 -3 -23 2 -30 11 -7 12 -12 14 -15 5 -7
-15 -33 -17 -35 -3 -1 6 -2 14 -3 18 -1 10 -32 42 -40 42 -3 0 -6 -7 -6 -15 0
-8 -5 -15 -10 -15 -19 0 -60 32 -60 46 0 8 -6 14 -13 14 -7 0 -18 9 -25 20 -7
11 -22 20 -34 20 -12 0 -33 10 -46 23 -14 12 -22 16 -17 8 6 -10 2 -11 -16 -6
-13 4 -27 12 -30 16 -3 5 -18 10 -35 11 -16 1 -40 10 -54 19 -21 14 -36 16
-85 9 -85 -12 -116 -21 -109 -31 3 -5 -7 -9 -23 -8 -25 0 -26 1 -8 10 17 8 16
8 -5 3 -14 -3 -38 -5 -55 -5 -25 1 -27 -1 -12 -10 23 -14 22 -32 -3 -24 -21 7
-28 -10 -7 -18 6 -3 -12 -8 -40 -12 -64 -9 -70 -25 -10 -25 26 0 51 -8 67 -20
14 -11 34 -20 45 -21 46 -4 -115 -16 -235 -18 -86 -2 -130 1 -130 8 0 6 5 11
10 11 6 0 10 9 10 19 0 13 9 21 30 26 17 4 30 11 30 17 0 6 10 8 25 4 32 -8
32 -3 0 18 -21 14 -32 15 -64 6 -44 -12 -102 1 -68 15 10 4 23 18 28 32 5 13
19 28 31 33 21 8 20 9 -7 7 -17 -1 -41 -12 -57 -28 -15 -15 -40 -29 -55 -31
-15 -3 -37 -9 -48 -13 -16 -7 -18 -6 -7 6 22 23 13 28 -24 13 -20 -8 -39 -13
-41 -10 -3 3 -14 1 -25 -5 -25 -13 -54 -4 -41 14 6 8 5 21 -3 37 -8 14 -14 19
-14 10 0 -13 -1 -13 -10 0 -5 8 -7 23 -4 32 3 10 0 26 -5 37 -8 14 -8 21 2 25
6 4 2 4 -11 2 -28 -5 -49 26 -28 43 7 6 16 8 19 4 4 -3 7 -2 7 4 0 6 -7 13
-15 17 -22 8 -18 36 4 36 19 0 19 1 0 40 -22 44 -24 60 -8 60 6 0 -1 14 -15
31 -39 46 -34 67 6 29 26 -24 34 -20 18 10 -8 16 -8 25 0 35 7 9 8 15 0 20 -5
3 -10 1 -10 -4 0 -6 -4 -11 -10 -11 -15 0 -12 19 6 37 9 10 13 25 10 39 -3 12
-2 26 4 29 19 12 11 37 -9 30 -18 -5 -19 -3 -8 25 6 16 15 30 19 30 4 0 5 7 1
16 -4 11 -13 14 -30 9 -22 -5 -23 -4 -13 15 6 12 9 27 7 35 -3 7 1 25 9 40 10
20 11 32 4 39 -16 16 -12 26 10 26 22 0 27 24 8 36 -7 5 -4 10 11 16 19 7 21
11 11 22 -9 12 -6 18 15 32 18 12 23 20 16 27 -16 16 -13 27 4 21 13 -6 37 31
40 61 1 22 18 36 35 30 14 -5 17 -2 13 14 -4 15 5 25 36 43 22 12 41 29 41 37
0 16 66 92 74 84 3 -3 15 11 27 31 11 20 25 36 31 36 5 0 6 9 3 20 -5 14 -2
20 10 20 19 0 60 36 60 53 0 7 6 13 13 13 6 1 19 2 27 3 8 0 21 15 30 31 13
25 20 29 40 24 15 -4 25 -2 25 5 0 6 -5 11 -11 11 -8 0 -8 5 1 15 7 8 19 15
26 15 8 0 22 4 32 10 9 5 30 14 45 20 16 5 25 14 22 20 -3 6 4 10 17 10 14 0
33 7 44 15 19 14 19 14 -1 15 -20 1 -20 1 0 16 11 8 25 12 32 10 7 -3 15 -1
18 4 4 6 22 10 40 10 27 0 33 3 28 16 -4 10 -1 15 8 14 8 -1 24 -2 37 -1 l23
1 -21 22 c-37 40 -26 46 39 23 45 -15 75 -11 67 11 -7 17 21 33 45 27 11 -3
19 0 19 6 0 6 9 11 21 11 11 0 18 4 14 9 -3 6 4 15 16 21 13 7 19 8 15 2 -11
-18 16 -26 29 -9 9 13 21 15 45 11 21 -5 35 -3 40 6 5 8 15 10 26 5 23 -10 55
-7 69 6 13 13 53 11 58 -3 3 -8 9 -3 14 11 6 16 12 20 17 13 11 -18 39 -15 32
3 -3 8 -1 15 3 15 5 0 11 -7 15 -15 8 -23 46 -19 46 5 0 16 5 18 37 14 20 -2
39 -7 42 -9 11 -11 39 27 34 48 -5 22 -4 22 15 -2 l19 -24 6 24 c4 13 2 28 -3
33 -12 12 -13 76 -1 76 5 0 11 -14 15 -32z m1291 -2114 c146 -9 281 -29 378
-55 l38 -10 -6 -46 c-3 -25 -8 -50 -11 -55 -3 -4 4 -28 15 -51 11 -23 30 -80
41 -127 12 -47 25 -98 29 -115 7 -29 8 -28 26 30 13 41 19 92 19 162 1 94 -1
103 -23 127 -14 14 -22 28 -19 31 2 3 18 -9 34 -26 28 -29 29 -34 29 -122 -1
-94 -22 -184 -74 -316 -62 -156 -202 -324 -313 -378 -105 -52 -224 -76 -386
-81 -245 -7 -422 32 -501 111 -82 80 -166 232 -202 362 -44 163 -12 300 90
378 53 41 140 84 188 93 18 3 37 12 44 20 6 8 21 14 33 14 21 -1 21 -1 2 -15
-15 -11 -17 -18 -8 -27 15 -15 45 9 39 33 -4 15 6 21 47 33 46 13 133 30 211
39 31 4 138 1 280 -9z m-2137 -100 c18 -8 35 -21 39 -27 5 -7 26 -21 48 -33
31 -15 39 -25 37 -42 -2 -12 2 -22 7 -22 6 0 11 5 11 10 0 6 7 10 15 10 21 0
19 -37 -3 -44 -37 -12 -275 -14 -301 -3 -14 6 -31 11 -37 12 -6 0 -19 6 -28
14 -9 7 -27 11 -41 9 -14 -3 -28 -2 -30 2 -3 5 -23 11 -45 15 -22 4 -42 10
-45 15 -3 5 -17 5 -33 1 -15 -4 -45 -4 -66 1 -29 6 -41 5 -47 -4 -4 -7 -10
-10 -13 -8 -2 3 3 16 13 28 14 19 37 27 132 44 239 42 337 48 387 22z m2855
-419 c44 -219 50 -293 43 -510 -3 -110 -8 -330 -12 -490 -3 -177 -11 -330 -20
-394 -19 -126 -76 -326 -139 -481 -82 -204 -273 -551 -380 -690 -101 -131
-390 -434 -458 -480 -24 -16 -37 -33 -37 -47 0 -14 -5 -21 -13 -17 -10 3 -12
-4 -9 -29 2 -21 -3 -48 -14 -68 -10 -19 -17 -45 -15 -58 2 -15 -1 -21 -8 -16
-8 4 -11 -4 -9 -24 1 -18 -5 -38 -16 -50 -13 -14 -15 -21 -6 -21 8 0 10 -8 6
-22 -3 -13 -11 -54 -17 -93 -6 -38 -13 -79 -15 -90 -2 -11 -9 -49 -14 -84 -6
-35 -14 -69 -20 -76 -5 -6 -11 -27 -13 -46 -2 -19 -7 -43 -11 -54 -25 -65 -33
-91 -29 -102 2 -6 -1 -14 -6 -18 -6 -3 -11 -30 -11 -59 0 -28 -5 -57 -11 -63
-17 -17 -38 -179 -37 -272 2 -71 4 -81 20 -81 10 0 18 -6 18 -14 0 -7 12 -21
26 -31 14 -9 23 -22 20 -30 -5 -14 23 -45 42 -45 7 0 12 -8 12 -17 0 -10 14
-31 30 -47 17 -16 30 -35 30 -41 0 -7 9 -20 20 -30 12 -10 19 -24 16 -31 -3
-7 2 -18 10 -24 8 -7 14 -19 14 -27 0 -7 6 -16 14 -19 11 -4 13 -27 11 -105
-2 -80 0 -99 11 -99 9 0 14 11 14 30 0 21 5 30 16 30 9 0 13 -5 9 -12 -4 -7 0
-5 8 5 17 21 21 21 41 2 10 -11 13 -26 9 -45 -3 -20 -1 -30 6 -30 8 0 10 -8 6
-19 -4 -13 4 -27 26 -45 29 -25 30 -28 15 -45 -9 -10 -13 -20 -10 -23 3 -4 -2
-20 -11 -38 -18 -34 -13 -66 7 -54 7 4 5 -2 -4 -13 -20 -22 -23 -49 -7 -58 6
-4 13 2 16 14 5 21 33 30 33 11 0 -5 -4 -10 -9 -10 -5 0 -16 -13 -24 -30 -14
-27 -14 -30 3 -35 10 -3 30 -3 44 1 16 4 33 0 48 -10 30 -21 38 -20 38 4 0 11
-5 20 -12 20 -6 0 -9 3 -5 6 3 3 16 -1 29 -10 28 -20 44 -21 29 -2 -8 10 -9
16 -1 21 5 3 10 1 10 -6 0 -8 7 -5 20 6 13 11 25 15 37 10 10 -5 22 -7 27 -6
59 14 111 20 120 13 12 -8 57 -7 98 4 42 10 45 -17 9 -87 -17 -33 -31 -65 -31
-71 0 -5 -16 -37 -35 -70 -20 -33 -33 -63 -29 -67 14 -14 128 127 169 210 24
47 55 99 69 116 14 17 22 34 18 38 -4 4 4 5 18 2 14 -4 35 -7 46 -7 16 0 27
-13 43 -51 11 -29 21 -57 21 -63 1 -6 25 -45 55 -86 118 -161 185 -259 185
-269 0 -6 4 -11 9 -11 5 0 21 -24 36 -52 15 -29 37 -68 48 -87 36 -59 62 -111
204 -396 35 -71 68 -137 73 -145 5 -8 48 -96 96 -195 47 -99 90 -187 95 -195
11 -20 61 -120 71 -142 7 -17 -60 -18 -1325 -18 l-1332 0 -122 203 c-68 111
-199 328 -292 482 -177 291 -345 571 -400 665 -17 30 -54 89 -81 130 -114 176
-175 286 -362 660 -235 467 -281 570 -270 601 8 20 10 20 24 5 21 -20 28 -20
28 -1 0 8 7 15 15 15 17 0 19 14 5 40 -8 15 -6 21 10 30 11 6 20 21 20 34 0
13 7 27 16 30 15 6 15 8 1 30 -18 27 -13 36 19 36 18 0 21 4 17 21 -3 11 -12
23 -19 26 -25 9 -15 24 12 17 21 -5 25 -3 22 12 -2 11 3 19 10 18 6 -1 19 -2
27 -2 8 -1 15 -10 15 -19 0 -15 2 -16 10 -3 7 11 4 18 -11 25 -14 8 -16 14 -8
22 6 6 18 9 25 6 10 -4 13 2 12 18 -3 22 0 24 35 21 28 -3 37 0 37 12 0 9 -6
13 -14 10 -9 -3 -15 4 -18 20 -4 20 -1 26 13 26 12 0 19 -7 19 -20 0 -24 28
-40 61 -33 16 3 30 -1 38 -11 8 -10 29 -16 53 -16 24 0 37 -4 33 -10 -3 -5 -1
-10 4 -10 6 0 11 5 11 10 0 7 8 6 23 -1 12 -7 38 -12 57 -10 20 1 47 -2 60 -7
27 -10 70 1 70 18 0 5 -8 10 -19 10 -21 0 -44 23 -34 34 4 3 22 3 40 0 31 -6
33 -4 39 26 6 27 9 29 21 18 18 -19 71 -11 84 13 5 11 17 19 25 19 8 0 13 4
10 9 -3 4 3 16 14 26 16 14 23 16 32 7 20 -20 45 -13 82 22 35 32 49 80 26 88
-6 2 -6 9 0 18 8 12 12 11 31 -8 14 -16 25 -20 31 -14 13 13 2 32 -18 32 -9 0
-14 10 -14 28 0 23 8 33 35 48 19 10 35 25 35 32 0 8 6 12 13 9 6 -2 11 -16 9
-31 -1 -14 2 -26 8 -26 5 0 10 7 10 15 0 17 14 19 39 5 15 -8 18 -5 17 18 -1
25 2 27 39 27 38 0 40 2 40 30 0 27 -3 30 -32 30 -17 0 -34 3 -38 6 -5 6 39
59 49 59 2 0 7 -12 10 -26 8 -32 32 -26 29 8 -2 30 44 62 67 48 25 -16 39 -11
46 15 4 17 13 24 28 24 27 -1 96 23 96 33 0 5 18 8 40 8 27 0 39 4 37 13 -1 6
5 10 13 8 8 -2 22 -3 30 -2 8 1 23 1 33 2 9 0 17 5 17 10 0 6 9 7 22 4 16 -6
20 -4 15 8 -4 11 5 16 36 21 23 4 49 7 57 7 27 1 100 23 100 31 0 4 -16 8 -35
8 -19 0 -35 -4 -35 -8 0 -5 -28 -8 -62 -8 -102 0 -203 -7 -208 -16 -3 -4 -18
-1 -34 7 -16 8 -38 15 -51 15 -12 0 -28 7 -35 15 -7 8 -21 15 -31 15 -10 0
-22 6 -26 13 -4 7 -29 25 -55 40 -26 15 -47 31 -46 35 4 11 -44 62 -59 62 -17
0 -17 17 0 23 6 2 -11 7 -40 11 -29 4 -57 14 -64 22 -6 8 -16 14 -22 14 -5 0
-20 10 -32 23 -40 40 -70 63 -88 70 -10 4 -16 3 -13 -2 4 -5 -4 -7 -15 -4 -12
4 -24 14 -26 23 -3 12 -11 16 -24 13 -13 -4 -19 0 -19 11 0 15 -15 20 -52 17
-9 -1 -19 3 -23 9 -3 5 -17 10 -29 10 -15 0 -37 15 -60 40 -20 22 -44 40 -53
40 -12 0 -18 9 -20 27 -1 32 -36 64 -41 39 -2 -9 -8 -16 -14 -16 -5 0 -8 6 -5
14 8 21 -33 70 -46 57 -6 -6 -15 -11 -19 -11 -13 0 -9 28 5 33 8 4 7 6 -3 6
-8 0 -26 -6 -40 -14 -21 -11 -27 -11 -40 0 -12 11 -25 12 -55 4 -118 -28 -135
-29 -154 -11 -10 9 -20 23 -23 31 -2 8 -14 15 -26 16 -11 1 -19 -2 -16 -7 3
-4 -2 -8 -11 -8 -12 0 -14 7 -10 28 l6 27 -18 -28 c-19 -29 -31 -30 -47 -4 -8
13 -8 20 3 26 11 7 9 11 -8 20 -12 7 -26 9 -31 6 -13 -8 -13 8 0 21 7 7 4 16
-9 28 -16 15 -18 23 -10 46 12 34 -12 89 -42 97 -14 4 -18 11 -14 24 4 11 -2
26 -14 38 -22 22 -28 37 -12 26 12 -7 25 31 16 45 -3 5 -15 10 -26 10 -12 0
-19 7 -19 19 0 10 -7 21 -15 25 -12 4 -14 15 -9 43 5 31 2 42 -15 57 -12 11
-21 31 -21 47 0 16 -7 32 -17 38 -13 7 -15 12 -5 23 8 10 9 24 1 51 -5 21 -7
42 -3 49 5 7 3 8 -6 3 -10 -6 -12 2 -7 42 4 33 2 55 -6 62 -9 10 -8 12 8 11
33 -4 34 -1 20 26 -17 34 -9 54 21 54 28 0 31 16 8 41 -14 16 -14 19 5 38 12
12 28 21 36 21 8 0 15 5 15 11 0 5 -4 7 -10 4 -5 -3 -10 2 -10 12 0 15 -2 16
-10 3 -8 -13 -10 -12 -10 3 0 9 7 17 15 17 8 0 15 -5 15 -12 0 -6 3 -8 7 -4 4
3 -6 19 -23 34 -42 40 -59 73 -44 82 16 10 2 33 -16 26 -10 -4 -14 2 -14 19 0
14 -3 24 -7 24 -20 -3 -27 2 -14 10 12 8 9 13 -16 27 -27 16 -29 20 -16 30 11
7 13 13 5 18 -6 4 -20 -2 -30 -12 -19 -19 -19 -18 -14 25 4 36 1 48 -18 68
-18 19 -20 27 -12 38 9 11 7 18 -8 32 -26 23 -25 35 1 35 15 0 19 4 15 16 -3
9 -6 23 -6 32 0 13 -2 13 -13 -3 -15 -19 -37 -13 -37 10 0 8 7 18 16 23 9 5
14 14 10 21 -10 16 -26 14 -26 -4 0 -22 -17 -19 -23 4 -3 13 1 21 14 24 11 3
19 13 19 24 0 10 13 32 29 49 l27 30 385 0 c475 0 559 6 580 37 4 6 21 6 45 1
28 -7 38 -15 39 -32 1 -12 -2 -22 -7 -22 -4 0 -8 -8 -8 -19 0 -10 -7 -24 -15
-31 -8 -7 -15 -19 -15 -26 0 -8 -6 -14 -12 -14 -7 0 -22 -21 -32 -48 -11 -26
-30 -61 -43 -78 -13 -17 -23 -38 -23 -47 0 -10 -7 -17 -15 -17 -9 0 -20 -11
-25 -24 -5 -13 -18 -27 -29 -31 -12 -3 -21 -13 -21 -21 0 -8 -8 -18 -17 -21
-15 -6 -15 -7 3 -14 10 -4 34 -8 52 -8 21 -1 32 -6 30 -13 -4 -26 13 -55 52
-88 29 -24 37 -36 28 -42 -10 -6 -10 -10 2 -18 23 -15 60 -13 54 4 -8 20 47
28 67 10 9 -8 19 -11 23 -7 4 4 11 1 16 -7 5 -8 29 -16 56 -17 26 -2 53 -8 60
-14 9 -7 29 -8 56 -3 24 5 50 9 58 9 15 1 33 7 85 30 74 33 119 44 127 33 4
-8 15 -4 32 13 13 14 47 36 75 49 28 13 51 29 51 35 0 7 16 30 35 51 l35 38
-44 23 c-25 12 -47 27 -51 33 -4 6 -22 17 -41 25 -19 8 -37 21 -40 30 -3 8
-17 15 -30 15 -15 0 -24 6 -24 15 0 9 -11 20 -24 25 -13 5 -40 22 -59 39 -19
17 -51 38 -71 46 -24 10 -36 22 -36 35 0 11 -7 20 -15 20 -9 0 -20 10 -24 23
-7 18 -4 26 15 40 13 10 22 23 18 28 -3 5 -1 9 4 9 19 0 44 91 45 170 1 47 6
81 13 84 13 5 28 63 44 166 22 148 30 185 50 225 24 49 70 75 136 75 82 0 129
-41 179 -156 60 -135 109 -227 171 -320 79 -119 69 -107 102 -110 15 -1 54
-16 87 -33 33 -17 67 -31 75 -31 12 0 13 -2 1 -9 -7 -5 -22 -6 -33 -3 -15 3
-19 1 -16 -9 7 -21 112 -30 296 -24 205 6 310 19 398 49 184 62 304 152 414
308 53 75 131 223 170 321 15 38 26 54 30 45 4 -7 19 -71 33 -143z m-2719 62
c26 -19 13 -53 -24 -66 -17 -5 -30 -11 -30 -13 0 -8 56 -2 62 6 4 6 13 5 22
-3 12 -10 36 -12 82 -8 56 4 68 2 82 -14 9 -10 22 -19 29 -19 7 0 13 -4 13 -9
0 -5 16 -18 35 -30 19 -11 35 -25 35 -31 0 -6 10 -24 22 -40 41 -56 42 -180 1
-180 -7 0 -13 -4 -13 -10 0 -5 5 -10 12 -10 6 0 -1 -13 -17 -30 -16 -16 -24
-30 -19 -30 12 0 56 30 66 44 4 6 10 8 13 4 3 -3 -17 -26 -44 -51 -115 -103
-309 -158 -561 -159 -244 -1 -348 28 -473 132 -72 60 -126 133 -187 256 -50
101 -69 177 -51 203 8 12 16 13 48 3 21 -6 66 -14 101 -17 34 -3 81 -13 103
-21 53 -18 125 -19 132 0 10 24 76 27 141 5 63 -21 222 -33 232 -18 2 4 11 6
19 2 10 -3 15 1 15 12 0 15 7 17 40 12 23 -3 38 -1 34 4 -5 8 0 28 22 97 4 13
20 8 58 -21z m-1129 -58 c-4 -13 -1 -19 9 -19 9 0 16 -4 16 -9 0 -13 144 -267
162 -285 7 -7 28 -32 46 -55 37 -45 148 -154 163 -159 5 -2 9 -8 9 -14 0 -7
-4 -7 -12 -1 -22 17 -69 24 -83 13 -14 -12 -40 -1 -98 44 -36 27 -38 28 -57
11 -18 -16 -20 -16 -42 5 -22 20 -22 22 -3 19 23 -2 55 10 55 21 0 15 -39 21
-60 10 -17 -9 -22 -7 -30 15 -5 14 -14 25 -19 25 -23 0 -41 -14 -41 -31 0 -12
-5 -16 -14 -13 -12 5 -12 9 0 32 19 37 18 42 -11 42 -17 0 -23 4 -19 14 3 8
-4 19 -16 26 -12 7 -19 18 -16 26 3 8 -1 14 -8 14 -8 0 -13 -8 -12 -17 0 -10
-7 -19 -16 -21 -25 -5 -23 20 5 50 22 25 47 63 47 73 0 3 -9 5 -20 5 -22 0
-27 16 -8 22 8 3 13 28 14 69 2 83 16 119 44 112 15 -4 19 -11 15 -24z"/>
<path d="M6540 12490 c-8 -5 -34 -7 -57 -4 -35 5 -43 3 -43 -10 0 -18 -25 -22
-36 -4 -5 8 -10 7 -18 -4 -15 -21 -87 -59 -98 -52 -12 8 -42 -33 -43 -59 -1
-14 3 -17 20 -13 30 8 41 -29 19 -62 -9 -13 -12 -27 -7 -31 10 -9 130 -32 158
-30 11 1 100 -2 197 -5 l177 -6 93 31 c76 26 114 33 203 36 106 4 165 16 165
34 0 4 -16 11 -36 15 -26 5 -53 23 -91 61 -29 30 -64 56 -76 57 -12 2 -35 9
-52 16 -18 8 -79 15 -149 16 -128 3 -246 11 -286 19 -14 3 -32 1 -40 -5z"/>
<path d="M6020 11209 c-23 -9 -69 -56 -70 -71 0 -3 8 -9 18 -11 11 -3 7 -7
-16 -12 -18 -4 -35 -11 -37 -15 -6 -10 51 -24 63 -16 5 3 18 -1 28 -9 13 -10
45 -14 96 -15 63 0 79 3 90 18 7 10 21 21 30 25 10 3 15 12 12 21 -3 8 -1 17
5 21 20 12 11 35 -21 55 -37 22 -152 27 -198 9z"/>
<path d="M6546 11202 c-14 -23 121 -177 186 -211 24 -12 28 -11 53 13 14 14
23 31 19 37 -5 8 -10 6 -16 -5 -13 -24 -28 -19 -28 9 0 14 -3 24 -7 23 -5 -2
-18 7 -31 20 -12 12 -27 20 -32 17 -5 -3 -20 12 -34 34 -31 48 -96 85 -110 63z"/>
<path d="M6695 10807 c-4 -10 -8 -28 -9 -40 -1 -12 -8 -22 -16 -22 -8 0 -23
-15 -33 -32 -10 -19 -32 -39 -52 -47 -40 -17 -168 -38 -231 -38 -24 0 -47 -5
-51 -10 -4 -8 46 -9 175 -4 l181 6 34 -30 c29 -25 124 -58 147 -51 8 2 6 45
-3 58 -5 6 -10 36 -11 65 -2 42 -8 58 -29 80 -15 15 -27 32 -27 39 0 7 -10 9
-24 7 -18 -4 -27 1 -34 16 -9 20 -10 20 -17 3z"/>
<path d="M4941 10778 c-19 -11 -42 -17 -52 -15 -10 3 -20 0 -22 -6 -2 -7 -12
-12 -23 -13 -75 -4 -72 -1 -76 -46 -5 -52 10 -148 24 -148 5 0 16 -7 24 -15 9
-8 25 -15 37 -16 12 -1 29 -2 37 -3 8 -2 27 -3 42 -4 14 -1 40 -14 57 -28 18
-15 39 -24 50 -21 10 2 23 -3 30 -14 11 -18 5 -24 -21 -20 -5 0 -8 -6 -8 -14
0 -8 7 -15 15 -15 8 0 15 -4 15 -10 0 -5 5 -10 10 -10 6 0 10 7 10 15 0 22 14
18 42 -10 21 -21 27 -23 37 -11 8 10 9 15 1 18 -7 2 -5 10 4 23 15 20 15 20
16 -2 0 -16 6 -23 20 -23 11 0 20 7 20 15 0 18 80 21 97 4 14 -14 33 -3 33 19
0 14 2 13 13 -3 8 -10 19 -15 25 -11 18 11 14 36 -5 36 -15 0 -16 2 -3 10 9 6
11 13 5 18 -14 10 -16 62 -2 64 7 0 26 3 42 5 17 3 112 5 212 6 100 1 185 5
189 10 4 4 -18 7 -49 7 -32 0 -59 5 -63 12 -4 6 -2 14 4 16 15 5 16 32 2 32
-17 0 -19 0 -62 16 -23 8 -94 17 -157 19 -256 12 -308 19 -331 48 -13 16 -20
18 -36 9 -17 -9 -26 -5 -58 24 -23 21 -47 34 -65 34 -15 0 -31 4 -36 9 -6 5
-24 1 -44 -11z"/>
<path d="M10756 11585 c-3 -8 -12 -15 -21 -15 -8 0 -15 -8 -15 -18 0 -19 -18
-42 -32 -42 -4 0 -7 5 -5 12 1 6 -6 14 -17 16 -11 2 -16 0 -12 -6 3 -6 -10
-16 -29 -22 -19 -6 -35 -18 -35 -26 0 -8 -5 -14 -11 -14 -6 0 -9 9 -6 20 3 11
1 23 -4 26 -5 3 -9 -4 -9 -15 0 -12 -7 -21 -15 -21 -8 0 -15 5 -15 10 0 6 -7
10 -15 10 -8 0 -15 -9 -15 -20 0 -11 5 -20 10 -20 6 0 10 -4 10 -10 0 -21 -20
-9 -26 16 -4 14 -9 22 -13 16 -3 -5 -23 -12 -43 -16 -27 -5 -38 -12 -41 -29
l-4 -22 -2 23 c-1 23 -34 32 -46 12 -8 -12 -65 -13 -65 -1 0 5 -26 2 -59 -7
-39 -10 -58 -20 -57 -30 1 -8 -5 -17 -11 -19 -7 -3 -13 2 -13 11 0 9 -7 16
-16 16 -12 0 -15 -6 -11 -21 6 -21 -11 -59 -25 -59 -5 0 -8 11 -8 25 0 31 -15
32 -31 3 -7 -13 -19 -29 -26 -37 -12 -11 -12 -15 -1 -22 9 -6 7 -9 -9 -9 -18
0 -23 -6 -23 -25 0 -14 -4 -25 -9 -25 -6 0 -22 -11 -37 -25 -15 -14 -31 -25
-37 -25 -5 0 -7 -6 -4 -14 3 -7 -2 -24 -10 -36 -15 -22 -15 -24 6 -42 14 -10
21 -24 17 -33 -9 -25 11 -63 36 -67 24 -3 28 -23 13 -63 -5 -16 -5 -17 4 -5 8
12 15 13 48 1 21 -7 45 -20 55 -28 9 -8 22 -16 30 -17 7 -1 23 -7 35 -14 12
-7 37 -12 57 -12 24 0 39 -6 50 -21 11 -16 20 -19 38 -13 12 4 28 6 33 5 6 -2
30 -5 55 -7 130 -8 171 -16 166 -30 -8 -20 21 -17 34 4 8 12 13 13 16 5 8 -18
24 -16 24 2 0 8 5 15 10 15 6 0 10 -9 10 -20 0 -18 3 -19 20 -10 11 6 20 7 20
2 0 -5 21 -12 48 -15 26 -3 55 -9 65 -12 16 -7 17 16 17 395 0 388 -1 402 -19
397 -14 -3 -17 0 -14 14 6 23 -2 25 -11 4z"/>
</g>
</svg>
